# xmcd CD database file
#
# Track frame offsets:
#	150
#	4012
#	15457
#	24865
#	29925
#	43197
#	59612
#	68185
#	76312
#	97440
#	103262
#	113925
#	116667
#	125977
#	137820
#	165337
#	178177
#
# Disc length: 2445 seconds
#
# Revision: 0
# Processed by: cddbd v1.5PL3 Copyright (c) Steve Scherf et al.
# Submitted via: CDex 1.51
#
DISCID=f7098b11
DTITLE=Frank Sinatra - You're the Tops!
DYEAR=1994
DGENRE=Jazz
TTITLE0=I get a kick out of you 1
TTITLE1=It was just one of those things
TTITLE2=All through the night
TTITLE3=You do some thing to me
TTITLE4=You're the top
TTITLE5=I get a kick out of you 2
TTITLE6=Come out wherever you are
TTITLE7=As long as there's music 1
TTITLE8=Some other time 1
TTITLE9=As long as there's music 2
TTITLE10=Some other time 2
TTITLE11=Where does love begin
TTITLE12=Saturday night
TTITLE13=If you are but a dream
TTITLE14=What is America to me
TTITLE15=Old man river
TTITLE16=I get a kick out of you 3
EXTD=YEAR: 1994
EXTT0=
EXTT1=
EXTT2=
EXTT3=
EXTT4=
EXTT5=
EXTT6=
EXTT7=
EXTT8=
EXTT9=
EXTT10=
EXTT11=
EXTT12=
EXTT13=
EXTT14=
EXTT15=
EXTT16=
PLAYORDER=
